<mxfile host="app.diagrams.net" modified="2023-04-12T20:13:49.099Z" agent="Mozilla/5.0 (X11; Ubuntu; Linux x86_64; rv:109.0) Gecko/20100101 Firefox/112.0" etag="Kqcnq8Ws_IpW6ixH57rx" version="21.1.7" type="device">
  <diagram id="tnet_LOf9Mh4IAzk4qz3" name="Página-1">
    <mxGraphModel dx="1050" dy="579" grid="1" gridSize="10" guides="1" tooltips="1" connect="1" arrows="1" fold="1" page="1" pageScale="1" pageWidth="827" pageHeight="1169" math="0" shadow="0">
      <root>
        <mxCell id="0" />
        <mxCell id="1" parent="0" />
        <mxCell id="9Fbn_BGN74yUHVzxx84l-1" value="" style="rounded=0;whiteSpace=wrap;html=1;" parent="1" vertex="1">
          <mxGeometry x="50" y="120" width="130" height="430" as="geometry" />
        </mxCell>
        <mxCell id="9Fbn_BGN74yUHVzxx84l-2" value="" style="rounded=0;whiteSpace=wrap;html=1;" parent="1" vertex="1">
          <mxGeometry x="180" y="120" width="530" height="430" as="geometry" />
        </mxCell>
        <mxCell id="9Fbn_BGN74yUHVzxx84l-3" value="País com a melhor média registrada" style="rounded=0;whiteSpace=wrap;html=1;" parent="1" vertex="1">
          <mxGeometry x="180" y="120" width="110" height="80" as="geometry" />
        </mxCell>
        <mxCell id="9Fbn_BGN74yUHVzxx84l-4" value="País com a pior média registrada" style="rounded=0;whiteSpace=wrap;html=1;" parent="1" vertex="1">
          <mxGeometry x="290" y="120" width="110" height="80" as="geometry" />
        </mxCell>
        <mxCell id="9Fbn_BGN74yUHVzxx84l-5" value="País com mais restaurantes cadastrados" style="rounded=0;whiteSpace=wrap;html=1;" parent="1" vertex="1">
          <mxGeometry x="400" y="120" width="110" height="80" as="geometry" />
        </mxCell>
        <mxCell id="9Fbn_BGN74yUHVzxx84l-6" value="País com maior número de&lt;br&gt;Avaliações" style="rounded=0;whiteSpace=wrap;html=1;" parent="1" vertex="1">
          <mxGeometry x="510" y="120" width="100" height="80" as="geometry" />
        </mxCell>
        <mxCell id="9Fbn_BGN74yUHVzxx84l-7" value="País com mais restaurantes com média igual 4" style="rounded=0;whiteSpace=wrap;html=1;" parent="1" vertex="1">
          <mxGeometry x="610" y="120" width="100" height="80" as="geometry" />
        </mxCell>
        <mxCell id="9Fbn_BGN74yUHVzxx84l-9" value="" style="rounded=0;whiteSpace=wrap;html=1;" parent="1" vertex="1">
          <mxGeometry x="180" y="330" width="530" height="220" as="geometry" />
        </mxCell>
        <mxCell id="9Fbn_BGN74yUHVzxx84l-10" value="Gráfico de barras contendo o preço médio por país" style="text;html=1;strokeColor=none;fillColor=none;align=center;verticalAlign=middle;whiteSpace=wrap;rounded=0;" parent="1" vertex="1">
          <mxGeometry x="190" y="230" width="140" height="60" as="geometry" />
        </mxCell>
        <mxCell id="9Fbn_BGN74yUHVzxx84l-14" value="Logo" style="rounded=0;whiteSpace=wrap;html=1;" parent="1" vertex="1">
          <mxGeometry x="50" y="240" width="130" height="60" as="geometry" />
        </mxCell>
        <mxCell id="9Fbn_BGN74yUHVzxx84l-15" value="Menu de&lt;br&gt;Páginas" style="rounded=0;whiteSpace=wrap;html=1;" parent="1" vertex="1">
          <mxGeometry x="50" y="120" width="130" height="120" as="geometry" />
        </mxCell>
        <mxCell id="9Fbn_BGN74yUHVzxx84l-16" value="Slider" style="text;html=1;strokeColor=none;fillColor=none;align=center;verticalAlign=middle;whiteSpace=wrap;rounded=0;" parent="1" vertex="1">
          <mxGeometry x="80" y="370" width="60" height="30" as="geometry" />
        </mxCell>
        <mxCell id="9Fbn_BGN74yUHVzxx84l-17" value="Filtros" style="text;html=1;strokeColor=none;fillColor=none;align=center;verticalAlign=middle;whiteSpace=wrap;rounded=0;" parent="1" vertex="1">
          <mxGeometry x="80" y="330" width="60" height="30" as="geometry" />
        </mxCell>
        <mxCell id="9Fbn_BGN74yUHVzxx84l-18" value="Visão País" style="text;html=1;strokeColor=none;fillColor=none;align=center;verticalAlign=middle;whiteSpace=wrap;rounded=0;fontSize=30;" parent="1" vertex="1">
          <mxGeometry x="80" y="70" width="250" height="30" as="geometry" />
        </mxCell>
        <mxCell id="1eIBOz0lW4xcaC8nv9Mf-1" value="Bandeira do País&lt;br&gt;Selecionado&lt;br&gt;(PNG)" style="rounded=0;whiteSpace=wrap;html=1;" vertex="1" parent="1">
          <mxGeometry x="180" y="330" width="110" height="80" as="geometry" />
        </mxCell>
        <mxCell id="1eIBOz0lW4xcaC8nv9Mf-2" value="Botão para selecionar o país" style="text;html=1;strokeColor=none;fillColor=none;align=center;verticalAlign=middle;whiteSpace=wrap;rounded=0;" vertex="1" parent="1">
          <mxGeometry x="290" y="355" width="110" height="30" as="geometry" />
        </mxCell>
        <mxCell id="1eIBOz0lW4xcaC8nv9Mf-3" value="Informações gerais do país" style="text;html=1;strokeColor=none;fillColor=none;align=center;verticalAlign=middle;whiteSpace=wrap;rounded=0;" vertex="1" parent="1">
          <mxGeometry x="440" y="350" width="170" height="30" as="geometry" />
        </mxCell>
        <mxCell id="1eIBOz0lW4xcaC8nv9Mf-4" value="DataFrame listando o número de cidades por país" style="text;html=1;strokeColor=none;fillColor=none;align=center;verticalAlign=middle;whiteSpace=wrap;rounded=0;" vertex="1" parent="1">
          <mxGeometry x="345" y="240" width="165" height="30" as="geometry" />
        </mxCell>
        <mxCell id="1eIBOz0lW4xcaC8nv9Mf-5" value="Gráfico de pizza indicando os tipos de culinária mais comuns&lt;br&gt;no país" style="whiteSpace=wrap;html=1;aspect=fixed;" vertex="1" parent="1">
          <mxGeometry x="180" y="410" width="140" height="140" as="geometry" />
        </mxCell>
        <mxCell id="1eIBOz0lW4xcaC8nv9Mf-6" value="" style="rounded=0;whiteSpace=wrap;html=1;" vertex="1" parent="1">
          <mxGeometry x="320" y="410" width="390" height="140" as="geometry" />
        </mxCell>
        <mxCell id="1eIBOz0lW4xcaC8nv9Mf-7" value="Mapa com zoom no país selecionado" style="text;html=1;strokeColor=none;fillColor=none;align=center;verticalAlign=middle;whiteSpace=wrap;rounded=0;" vertex="1" parent="1">
          <mxGeometry x="440" y="465" width="130" height="30" as="geometry" />
        </mxCell>
      </root>
    </mxGraphModel>
  </diagram>
</mxfile>
